HIERARCHY
ROOT SpineBase
{
  OFFSET 0.000000 0.000000 0.000000
  CHANNELS 6 Xposition Yposition Zposition Zrotation Xrotation Yrotation
  JOINT SpineMid
  {
    OFFSET 0.000000 33.404934 0.000000
    CHANNELS 3 Zrotation Xrotation Yrotation
    JOINT SpineShoulder
    {
      OFFSET 0.167533 24.698534 -0.781642
      CHANNELS 3 Zrotation Xrotation Yrotation
      JOINT Neck
      {
        OFFSET 0.146607 8.132357 -0.584985
        CHANNELS 3 Zrotation Xrotation Yrotation
        JOINT Head
        {
          OFFSET 3.554395 9.289655 7.255980
          CHANNELS 3 Zrotation Xrotation Yrotation
          End Site
          {
            OFFSET 0 0 0
          }
        }
      }
      JOINT ShoulderLeft
      {
        OFFSET -0.868730 -5.453739 -14.775923
        CHANNELS 3 Zrotation Xrotation Yrotation
        JOINT ElbowLeft
        {
          OFFSET 0.792236 -27.304276 -7.503974
          CHANNELS 3 Zrotation Xrotation Yrotation
          JOINT WristLeft
          {
            OFFSET 5.036332 -24.856124 -0.480940
            CHANNELS 3 Zrotation Xrotation Yrotation
            JOINT HandLeft
            {
              OFFSET -0.975034 -6.152031 2.704455
              CHANNELS 3 Zrotation Xrotation Yrotation
              JOINT HandTipLeft
              {
                OFFSET 1.813664 -7.082874 1.922928
                CHANNELS 3 Zrotation Xrotation Yrotation
                End Site
                {
                  OFFSET 0 0 0
                }
              }
              JOINT ThumbLeft
              {
                OFFSET 4.141324 2.513536 4.414314
                CHANNELS 3 Zrotation Xrotation Yrotation
                End Site
                {
                  OFFSET 0 0 0
                }
              }
            }
          }
        }
      }
      JOINT ShoulderRight
      {
        OFFSET 9.873435 -6.778285 22.835631
        CHANNELS 3 Zrotation Xrotation Yrotation
        JOINT ElbowRight
        {
          OFFSET -4.295902 -12.184898 -26.399271
          CHANNELS 3 Zrotation Xrotation Yrotation
          JOINT WristRight
          {
            OFFSET -6.363309 -21.402573 -17.679871
            CHANNELS 3 Zrotation Xrotation Yrotation
            JOINT HandRight
            {
              OFFSET -1.941260 -15.296891 2.306877
              CHANNELS 3 Zrotation Xrotation Yrotation
              JOINT HandTipRight
              {
                OFFSET -0.813591 -2.902756 -1.070034
                CHANNELS 3 Zrotation Xrotation Yrotation
                End Site
                {
                  OFFSET 0 0 0
                }
              }
              JOINT ThumbRight
              {
                OFFSET -3.618516 2.171656 -1.220650
                CHANNELS 3 Zrotation Xrotation Yrotation
                End Site
                {
                  OFFSET 0 0 0
                }
              }
            }
          }
        }
      }
    }
  }
  JOINT HipLeft
  {
    OFFSET -1.143098 1.108359 -7.273051
    CHANNELS 3 Zrotation Xrotation Yrotation
    JOINT KneeLeft
    {
      OFFSET -1.899179 -36.599348 -6.780280
      CHANNELS 3 Zrotation Xrotation Yrotation
      JOINT AnkleLeft
      {
        OFFSET -8.438874 -37.727980 -1.051907
        CHANNELS 3 Zrotation Xrotation Yrotation
        JOINT FootLeft
        {
          OFFSET 10.569093 -3.533460 -6.297816
          CHANNELS 3 Zrotation Xrotation Yrotation
          End Site
          {
            OFFSET 0 0 0
          }
        }
      }
    }
  }
  JOINT HipRight
  {
    OFFSET 2.532698 0.721323 -0.174141
    CHANNELS 3 Zrotation Xrotation Yrotation
    JOINT KneeRight
    {
      OFFSET 0.413992 -42.441995 -13.767809
      CHANNELS 3 Zrotation Xrotation Yrotation
      JOINT AnkleRight
      {
        OFFSET -12.551151 -35.555690 10.722163
        CHANNELS 3 Zrotation Xrotation Yrotation
        JOINT FootRight
        {
          OFFSET -1.302923 0.086524 -15.692148
          CHANNELS 3 Zrotation Xrotation Yrotation
          End Site
          {
            OFFSET 0 0 0
          }
        }
      }
    }
  }
}
MOTION
Frames: 6
Frame Time: 0.033333
-60.199506 82.035646 326.546445 -4.858824 0.578975 -63.244557 0.268275 0.999398 63.153713 -0.024472 0.468463 -0.158385 -6.039192 8.766625 4.447674 0.000000 0.000000 0.000000 -1.150483 0.237692 1.719380 10.033563 -0.868783 -1.161607 8.016437 2.967174 4.957052 -1.431843 11.478535 0.298972 0.000000 0.000000 0.000000 0.000000 0.000000 0.000000 3.457135 -1.222573 1.233034 0.418116 -0.023888 -0.898911 -3.159452 6.057137 -1.083608 26.392381 -6.001389 -4.915222 0.000000 0.000000 0.000000 0.000000 0.000000 0.000000 2.337558 6.777873 62.712363 -2.231279 -1.565969 0.464884 -5.565360 -2.689131 2.154525 0.000000 0.000000 0.000000 0.807009 2.159176 64.115368 2.053846 -2.353283 -0.453690 0.096740 -28.799460 -10.366376 0.000000 0.000000 0.000000
-60.741670 82.922312 326.291954 -5.066090 1.351812 -67.540274 0.249470 1.346554 67.496406 -0.265620 0.634828 -0.180894 -2.075477 8.589799 1.200906 0.000000 0.000000 0.000000 -0.182263 0.252185 1.547736 12.899607 -3.384186 -0.954366 13.776108 9.777524 7.350955 -11.596571 11.239171 -3.431898 0.000000 0.000000 0.000000 0.000000 0.000000 0.000000 3.379102 -1.544833 1.462485 -0.052263 -0.345732 -0.638158 -5.247643 -0.167125 -1.371544 23.385926 -1.808908 -5.003385 0.000000 0.000000 0.000000 0.000000 0.000000 0.000000 4.540153 7.641605 66.648426 -4.649646 -0.619471 0.816917 -5.580626 -2.922387 1.506716 0.000000 0.000000 0.000000 -3.394211 5.138365 68.585465 0.495158 -9.109905 0.013560 -0.317815 -32.065222 -12.981247 0.000000 0.000000 0.000000
-60.947672 83.594735 325.869042 -4.324930 2.282225 -70.708133 0.172862 1.458137 70.723506 0.322834 0.575092 -0.112790 2.556505 7.213005 -3.427028 0.000000 0.000000 0.000000 1.053811 0.499209 0.794405 14.231544 -6.730649 -0.156686 15.451396 8.255824 10.812808 -11.100151 15.380730 -6.213410 0.000000 0.000000 0.000000 0.000000 0.000000 0.000000 2.298721 -2.131826 0.527594 -0.041544 -0.258147 -0.198162 -5.780803 0.201866 -1.096573 16.881581 -0.101546 -3.066696 0.000000 0.000000 0.000000 0.000000 0.000000 0.000000 5.475085 7.595093 69.664514 -6.588080 -0.494107 1.076328 -4.368145 -3.511761 -2.492653 0.000000 0.000000 0.000000 -3.256735 3.531305 71.814046 1.028012 -9.353768 -0.014253 -1.299671 -33.820306 -15.370889 0.000000 0.000000 0.000000
-61.198366 84.415265 325.422802 -2.633270 3.363798 -68.026082 0.435106 1.486354 68.088159 0.578932 0.409557 -0.029645 9.094907 4.634057 -9.635837 0.000000 0.000000 0.000000 2.807257 0.953255 -0.301652 14.412369 -10.570316 1.133560 20.517988 6.407977 15.866708 -7.317918 19.383704 -10.850829 0.000000 0.000000 0.000000 0.000000 0.000000 0.000000 1.058307 -1.018640 -1.952193 2.981815 -1.191103 -1.133711 -7.639892 1.390437 2.229121 15.250006 7.183566 -6.256441 0.000000 0.000000 0.000000 0.000000 0.000000 0.000000 7.192245 7.582052 66.528812 -10.760274 -0.244728 1.517857 -0.149907 -3.213805 -5.267808 0.000000 0.000000 0.000000 0.584534 -0.626471 69.067917 3.045482 -3.855001 -0.454567 -2.654067 -36.217360 -16.357080 0.000000 0.000000 0.000000
-61.321655 84.477384 325.168088 0.305494 4.106813 -51.970731 0.911391 1.239968 52.035207 0.629407 0.216496 0.087475 15.461147 -0.447973 -15.496356 0.000000 0.000000 0.000000 4.238780 1.500724 -1.678258 13.505829 -14.310066 2.699185 14.643334 8.739420 14.506811 0.293493 16.625271 -8.994301 0.000000 0.000000 0.000000 0.000000 0.000000 0.000000 0.308460 -2.936798 -6.434969 1.689967 0.672680 2.107334 -9.086466 1.549271 3.006885 0.065944 6.430671 0.080465 0.000000 0.000000 0.000000 0.000000 0.000000 0.000000 9.672444 5.345961 49.941198 -16.337980 0.043835 2.005947 2.865337 -2.814157 -2.376629 0.000000 0.000000 0.000000 3.669205 -9.385691 53.646769 6.667692 6.110240 -2.019435 -3.686105 -36.855297 -15.750091 0.000000 0.000000 0.000000
-61.250720 83.853659 324.962673 3.940881 4.462650 -14.129614 1.308275 0.358912 14.161034 0.532124 0.013434 0.222154 21.280486 -7.287474 -20.258063 0.000000 0.000000 0.000000 6.073450 4.576752 -3.516062 11.271104 -19.884375 5.092105 7.473132 12.871297 11.988834 1.973383 6.875012 -5.349949 0.000000 0.000000 0.000000 0.000000 0.000000 0.000000 0.073456 -7.645697 -12.600844 -4.136063 3.442771 10.145760 -6.795652 6.388704 1.085529 4.159400 3.910280 -1.436434 0.000000 0.000000 0.000000 0.000000 0.000000 0.000000 11.311980 -1.039089 11.852160 -23.056388 -0.580203 2.447822 5.021911 -1.575486 5.200476 0.000000 0.000000 0.000000 -6.353082 -20.841789 15.278230 11.613282 19.571453 -5.401385 -4.230556 -36.751700 -13.657343 0.000000 0.000000 0.000000
